<svg width="71" height="24" viewBox="0 0 71 24" fill="none" xmlns="http://www.w3.org/2000/svg">
<g id="Logo" clip-path="url(#clip0_1_1036)">
<path id="Vector" d="M11.0383 1.53955C5.23931 1.53955 0.538086 6.24064 0.538086 12.0396C0.538086 17.8388 5.23931 22.5396 11.0383 22.5396C16.8379 22.5396 21.5386 17.8388 21.5386 12.0396C21.5386 6.24102 16.8379 1.54005 11.0382 1.54005L11.0383 1.53955ZM15.8536 16.6837C15.6655 16.9921 15.2618 17.0899 14.9533 16.9006C12.488 15.3947 9.38444 15.0536 5.72944 15.8887C5.37723 15.969 5.02615 15.7483 4.9459 15.3959C4.86528 15.0436 5.08508 14.6925 5.43817 14.6123C9.43798 13.6985 12.8689 14.0919 15.6367 15.7834C15.9451 15.9727 16.0429 16.3752 15.8536 16.6837ZM17.1388 13.8246C16.9018 14.2098 16.3978 14.3314 16.0128 14.0944C13.1904 12.3596 8.88804 11.8572 5.54964 12.8705C5.11668 13.0013 4.6594 12.7573 4.52799 12.3251C4.39759 11.8922 4.64172 11.4358 5.07392 11.3041C8.88729 10.147 13.628 10.7075 16.8692 12.6993C17.2542 12.9362 17.3758 13.4403 17.1388 13.8247V13.8246ZM17.2491 10.8474C13.865 8.83738 8.28155 8.65257 5.05048 9.63321C4.53163 9.79057 3.98294 9.49767 3.82571 8.97882C3.66847 8.45972 3.96112 7.91141 4.48035 7.75367C8.18939 6.62771 14.3552 6.84525 18.2515 9.15825C18.7192 9.43522 18.8721 10.038 18.595 10.504C18.3192 10.9707 17.7148 11.1245 17.2497 10.8474H17.2491ZM29.1056 11.2326C27.2926 10.8003 26.9703 10.4969 26.9703 9.85928C26.9703 9.25693 27.5371 8.85155 28.3809 8.85155C29.1984 8.85155 30.0084 9.15937 30.8585 9.79307C30.8836 9.81226 30.9162 9.81991 30.9476 9.81489C30.9802 9.81013 31.0077 9.7927 31.0266 9.76649L31.9118 8.51865C31.9481 8.46725 31.9381 8.3964 31.8892 8.35716C30.8773 7.54553 29.7388 7.15094 28.4072 7.15094C26.45 7.15094 25.082 8.32568 25.082 10.0065C25.082 11.8089 26.2619 12.4471 28.3007 12.9398C30.0348 13.3394 30.3282 13.6741 30.3282 14.2725C30.3282 14.9358 29.7363 15.3483 28.7834 15.3483C27.7251 15.3483 26.8612 14.9909 25.8958 14.1559C25.8719 14.1346 25.8393 14.1258 25.8092 14.127C25.7766 14.1295 25.7478 14.1446 25.7277 14.1684L24.7347 15.3496C24.6933 15.3997 24.6983 15.4724 24.746 15.5151C25.8694 16.5181 27.2512 17.0473 28.7433 17.0473C30.8523 17.0473 32.2152 15.895 32.2152 14.1107C32.219 12.6052 31.3175 11.7714 29.1094 11.2343L29.1056 11.2326ZM36.9874 9.44463C36.0733 9.44463 35.3235 9.80474 34.7041 10.5426V9.71208C34.7041 9.6465 34.6515 9.59309 34.5863 9.59309H32.9625C32.8973 9.59309 32.8447 9.6465 32.8447 9.71208V18.9406C32.8447 19.0058 32.8973 19.0597 32.9625 19.0597H34.5863C34.6515 19.0597 34.7041 19.0058 34.7041 18.9406V16.0279C35.3235 16.7213 36.0733 17.0611 36.9874 17.0611C38.6864 17.0611 40.4067 15.7533 40.4067 13.2532C40.4092 10.7527 38.6889 9.4445 36.9887 9.4445L36.9874 9.44463ZM38.5184 13.2532C38.5184 14.5258 37.7347 15.4148 36.6113 15.4148C35.5016 15.4148 34.664 14.4856 34.664 13.2532C34.664 12.0207 35.5016 11.0918 36.6113 11.0918C37.7159 11.0917 38.5184 12.0005 38.5184 13.2531V13.2532ZM44.814 9.44463C42.626 9.44463 40.912 11.1293 40.912 13.2804C40.912 15.4085 42.6147 17.0749 44.7877 17.0749C46.9832 17.0749 48.7022 15.3959 48.7022 13.2532C48.7022 11.1178 46.9945 9.44488 44.814 9.44488V9.44463ZM44.814 15.4273C43.6504 15.4273 42.7727 14.4919 42.7727 13.2526C42.7727 12.0076 43.6203 11.1042 44.7877 11.1042C45.9588 11.1042 46.8415 12.0392 46.8415 13.2798C46.8415 14.5245 45.9889 15.4273 44.814 15.4273ZM53.3741 9.59309H51.5873V7.76671C51.5873 7.70126 51.5347 7.64785 51.4695 7.64785H49.8457C49.7805 7.64785 49.7266 7.70126 49.7266 7.76671V9.59309H48.9467C48.8815 9.59309 48.8289 9.6465 48.8289 9.71208V11.1072C48.8289 11.1727 48.8815 11.2262 48.9467 11.2262H49.7266V14.8367C49.7266 16.295 50.4526 17.0347 51.8858 17.0347C52.4676 17.0347 52.9503 16.9144 53.4054 16.6561C53.4431 16.636 53.4656 16.5959 53.4656 16.5533V15.2242C53.4656 15.184 53.4443 15.1452 53.4092 15.1239C53.3741 15.1013 53.3302 15.1 53.2938 15.1188C52.9816 15.2756 52.6795 15.3483 52.3409 15.3483C51.8206 15.3483 51.5873 15.1113 51.5873 14.5822V11.2269H53.3741C53.4393 11.2269 53.492 11.1734 53.492 11.1079V9.71283C53.4945 9.64725 53.4418 9.59384 53.3754 9.59384L53.3741 9.59309ZM59.5983 9.60023V9.37592C59.5983 8.71601 59.8515 8.42173 60.4183 8.42173C60.7568 8.42173 61.0289 8.48894 61.3336 8.5905C61.3712 8.60229 61.4101 8.59639 61.4402 8.57395C61.4715 8.5515 61.4891 8.51552 61.4891 8.4774V7.10944C61.4891 7.05716 61.4565 7.01089 61.4051 6.99547C61.0841 6.8998 60.6728 6.80162 60.0559 6.80162C58.5576 6.80162 57.7639 7.64597 57.7639 9.24251V9.58606H56.984C56.9188 9.58606 56.8648 9.63948 56.8648 9.70493V11.1072C56.8648 11.1727 56.9188 11.2262 56.984 11.2262H57.7639V16.794C57.7639 16.8604 57.8178 16.9131 57.883 16.9131H59.5055C59.5719 16.9131 59.6246 16.8604 59.6246 16.794V11.2266H61.1405L63.4627 16.794C63.1993 17.3783 62.9398 17.4949 62.5862 17.4949C62.3003 17.4949 61.9981 17.4096 61.6909 17.2404C61.6621 17.2253 61.627 17.2228 61.5969 17.2316C61.5656 17.2429 61.5392 17.2654 61.5267 17.2955L60.9762 18.503C60.9499 18.5607 60.9725 18.6271 61.0277 18.6572C61.6019 18.9682 62.1198 19.1011 62.7605 19.1011C63.9592 19.1011 64.6225 18.5419 65.2055 17.0398L68.0217 9.76273C68.0367 9.72612 68.0317 9.68474 68.0091 9.65227C67.9878 9.62004 67.9515 9.60061 67.9126 9.60061H66.2224C66.171 9.60061 66.1259 9.63283 66.1096 9.68035L64.378 14.6248L62.4821 9.67709C62.4646 9.63108 62.4207 9.60061 62.3718 9.60061H59.5983V9.60023ZM55.9897 9.59309H54.3659C54.3007 9.59309 54.2468 9.6465 54.2468 9.71208V16.794C54.2468 16.8604 54.3007 16.9131 54.3659 16.9131H55.9897C56.0549 16.9131 56.1088 16.8604 56.1088 16.794V9.71258C56.1088 9.647 56.0561 9.59359 55.9897 9.59359V9.59309ZM55.1872 6.36829C54.5439 6.36829 54.0223 6.88889 54.0223 7.53199C54.0223 8.17547 54.5439 8.6967 55.1872 8.6967C55.8304 8.6967 56.3508 8.17547 56.3508 7.53199C56.3508 6.88901 55.8292 6.36829 55.1872 6.36829ZM69.4085 11.8702C68.7665 11.8702 68.2662 11.3543 68.2662 10.7277C68.2662 10.1011 68.7728 9.57929 69.4147 9.57929C70.0567 9.57929 70.557 10.0951 70.557 10.7212C70.557 11.3477 70.0504 11.8702 69.4085 11.8702ZM69.4147 9.69289C68.8292 9.69289 68.3866 10.1581 68.3866 10.7277C68.3866 11.2971 68.8267 11.756 69.4085 11.756C69.994 11.756 70.4366 11.2912 70.4366 10.7212C70.4366 10.1518 69.9965 9.69289 69.4147 9.69289ZM69.668 10.8387L69.9915 11.2911H69.7182L69.4273 10.876H69.1777V11.2911H68.9495V10.0919H69.4837C69.7633 10.0919 69.9464 10.2344 69.9464 10.4744C69.9476 10.671 69.8335 10.7911 69.6693 10.8387H69.668ZM69.4749 10.2976H69.1777V10.6769H69.4749C69.6229 10.6769 69.7119 10.6043 69.7119 10.4871C69.7119 10.3637 69.6229 10.2976 69.4749 10.2976Z" fill="#4C4C4D"/>
</g>
<defs>
<clipPath id="clip0_1_1036">
<rect width="70" height="24" fill="white" transform="translate(0.5)"/>
</clipPath>
</defs>
</svg>
