<svg width="49" height="24" viewBox="0 0 49 24" fill="none" xmlns="http://www.w3.org/2000/svg">
<g id="Logo" clip-path="url(#clip0_1_1032)">
<g id="Vector">
<path d="M0.167603 17.6977L5.09482 10.0308H0.751296C0.714487 9.80994 0.698711 9.56805 0.698711 9.29986C0.698711 9.0422 0.714487 8.80557 0.751296 8.58997H7.78192L7.87131 8.8266L2.90728 16.5093H7.56106C7.59787 16.7512 7.61364 17.0036 7.61364 17.256C7.61364 17.4979 7.59787 17.7292 7.56106 17.9501H0.256997L0.167603 17.6977Z" fill="#4C4C4D"/>
<path d="M14.3866 11.782C14.3866 11.0616 14.2026 10.5673 13.8397 10.2833C13.4769 10.0046 12.9458 9.86263 12.2517 9.86263C11.8257 9.86263 11.4261 9.89418 11.058 9.96254C10.6846 10.0309 10.3271 10.115 9.96949 10.2255C9.73811 9.82582 9.62243 9.34203 9.62243 8.78463C10.0378 8.65317 10.4901 8.548 10.9896 8.47438C11.4892 8.40076 11.9677 8.36395 12.4305 8.36395C13.6452 8.36395 14.5707 8.64265 15.207 9.1948C15.838 9.74694 16.1587 10.6356 16.1587 11.8503V17.7083C15.7328 17.803 15.2175 17.9081 14.6075 18.0081C13.9975 18.1132 13.377 18.1605 12.746 18.1605C12.1518 18.1605 11.6101 18.108 11.1316 17.9975C10.6531 17.8871 10.2429 17.7136 9.90639 17.4664C9.56984 17.2245 9.31218 16.9143 9.12813 16.5357C8.94408 16.1571 8.85469 15.6996 8.85469 15.1685C8.85469 14.6479 8.95986 14.1851 9.17546 13.7907C9.3858 13.3963 9.67501 13.0651 10.0431 12.8074C10.4059 12.5445 10.8266 12.3499 11.3051 12.2237C11.7784 12.0975 12.278 12.0291 12.8038 12.0291C13.193 12.0291 13.5137 12.0396 13.7609 12.0554C14.008 12.0712 14.2184 12.0975 14.3919 12.1185V11.782H14.3866ZM14.3866 13.5541C14.2026 13.5278 13.9712 13.5068 13.6925 13.4805C13.4138 13.4542 13.1772 13.4437 12.9826 13.4437C12.2254 13.4437 11.6522 13.5856 11.2578 13.8643C10.8634 14.1431 10.6636 14.569 10.6636 15.1422C10.6636 15.505 10.732 15.7942 10.8634 15.9993C10.9949 16.2044 11.1632 16.3621 11.363 16.4726C11.5628 16.583 11.7837 16.6514 12.0308 16.6724C12.2727 16.6987 12.5041 16.7092 12.7249 16.7092C13.0036 16.7092 13.2929 16.6934 13.5926 16.6619C13.8923 16.6303 14.1553 16.5883 14.3866 16.5252V13.5541Z" fill="#4C4C4D"/>
<path d="M18.1306 8.59036C18.2516 8.56407 18.3778 8.5483 18.504 8.53778C18.6302 8.52726 18.7617 8.522 18.8984 8.522C19.0193 8.522 19.1455 8.52726 19.2823 8.53778C19.4137 8.5483 19.5452 8.56933 19.6661 8.59036C19.6766 8.61666 19.6924 8.69028 19.7135 8.81648C19.7292 8.94268 19.7503 9.0794 19.766 9.22664C19.7818 9.37388 19.8029 9.5106 19.8186 9.64732C19.8344 9.78404 19.8449 9.86818 19.8449 9.90499C19.9659 9.71043 20.1131 9.52112 20.2814 9.33707C20.4496 9.15302 20.6547 8.99001 20.8914 8.84277C21.128 8.69553 21.3962 8.57985 21.6959 8.49571C21.9956 8.41157 22.3269 8.36951 22.6898 8.36951C23.2367 8.36951 23.7467 8.4589 24.2147 8.64295C24.6827 8.827 25.0824 9.1057 25.4189 9.48957C25.7555 9.87344 26.0131 10.3625 26.2024 10.9514C26.3918 11.5404 26.4864 12.2398 26.4864 13.0443C26.4864 14.6534 26.05 15.9102 25.1823 16.8147C24.3094 17.7191 23.0789 18.1766 21.4856 18.1766C21.2174 18.1766 20.9439 18.1608 20.6652 18.124C20.3865 18.0872 20.1394 18.0399 19.9343 17.9768V22.2677C19.7871 22.294 19.6346 22.3098 19.4663 22.3203C19.3033 22.3308 19.1508 22.3361 19.0193 22.3361C18.8879 22.3361 18.7354 22.3308 18.5724 22.3203C18.4093 22.3098 18.2568 22.2888 18.1254 22.2677V8.59036H18.1306ZM19.9396 16.4203C20.1709 16.5044 20.4076 16.5675 20.6495 16.6043C20.8914 16.6411 21.2069 16.6569 21.6013 16.6569C22.0377 16.6569 22.4426 16.5886 22.8055 16.4466C23.1683 16.3046 23.4838 16.089 23.7467 15.7998C24.0097 15.5053 24.2147 15.1372 24.3672 14.6955C24.5197 14.2538 24.5933 13.7227 24.5933 13.1179C24.5933 12.1451 24.4146 11.3721 24.057 10.7989C23.6994 10.2258 23.1104 9.9418 22.2954 9.9418C21.9904 9.9418 21.7012 9.99439 21.4172 10.1048C21.1385 10.2152 20.8861 10.3783 20.6705 10.5991C20.4496 10.82 20.2761 11.0934 20.1394 11.43C20.0027 11.7665 19.9396 12.1609 19.9396 12.6236V16.4203Z" fill="#4C4C4D"/>
<path d="M28.737 10.0098H27.5486C27.5223 9.90985 27.5065 9.79942 27.496 9.67322C27.4855 9.54702 27.4803 9.42081 27.4803 9.29986C27.4803 9.17892 27.4855 9.05272 27.496 8.92651C27.5065 8.80031 27.5276 8.68462 27.5486 8.58997H30.5092V17.9554C30.3777 17.9817 30.2252 17.9974 30.0622 18.0079C29.8992 18.0185 29.7467 18.0237 29.6152 18.0237C29.4943 18.0237 29.3523 18.0185 29.184 18.0079C29.021 17.9974 28.8685 17.9764 28.737 17.9554V10.0098Z" fill="#4C4C4D"/>
<path d="M34.3952 13.7172C34.4215 14.7374 34.6844 15.4894 35.1892 15.9626C35.694 16.4359 36.4407 16.6725 37.4241 16.6725C38.2865 16.6725 39.1121 16.52 39.8903 16.215C39.9902 16.3991 40.0691 16.6199 40.1269 16.8829C40.1901 17.1458 40.2216 17.4035 40.2374 17.6611C39.8377 17.8294 39.396 17.9609 38.9122 18.045C38.4337 18.1291 37.8973 18.1712 37.3137 18.1712C36.4618 18.1712 35.7308 18.0503 35.1209 17.8136C34.5109 17.577 34.0113 17.2404 33.6169 16.8092C33.2225 16.378 32.9333 15.868 32.7493 15.2738C32.5652 14.6848 32.4758 14.038 32.4758 13.3281C32.4758 12.634 32.5652 11.9872 32.7388 11.3825C32.9123 10.7777 33.1857 10.2571 33.5486 9.81017C33.9114 9.36846 34.3741 9.01088 34.9263 8.75321C35.4784 8.49029 36.1357 8.35883 36.8877 8.35883C37.5345 8.35883 38.0972 8.46925 38.5862 8.69011C39.0752 8.91097 39.4802 9.2107 39.8114 9.59457C40.1375 9.97845 40.3899 10.4359 40.5581 10.9618C40.7264 11.4929 40.8158 12.0661 40.8158 12.6866C40.8158 12.8548 40.8106 13.0389 40.7948 13.2229C40.7843 13.4122 40.7685 13.5753 40.758 13.7067H34.3952V13.7172ZM39.0332 12.3658C39.0332 12.024 38.9859 11.698 38.8965 11.3877C38.8071 11.0775 38.6703 10.8093 38.4968 10.5779C38.318 10.3465 38.0972 10.1625 37.8237 10.0205C37.5503 9.87853 37.2243 9.81017 36.8456 9.81017C36.1042 9.81017 35.5363 10.0363 35.1366 10.4833C34.7422 10.9355 34.5004 11.5613 34.4162 12.3658H39.0332Z" fill="#4C4C4D"/>
<path d="M42.8141 8.58997C42.9455 8.56367 43.077 8.5479 43.198 8.53738C43.3189 8.52687 43.4451 8.52161 43.5818 8.52161C43.7133 8.52161 43.85 8.52687 43.9815 8.53738C44.1129 8.5479 44.2391 8.56893 44.3443 8.58997C44.3811 8.77402 44.4179 9.01065 44.4547 9.31038C44.4915 9.61012 44.5073 9.86253 44.5073 10.0676C44.765 9.65219 45.1015 9.29461 45.5222 8.98961C45.9429 8.68462 46.4793 8.53212 47.1366 8.53212C47.2365 8.53212 47.3364 8.53738 47.4363 8.54264C47.5415 8.5479 47.6256 8.55842 47.6992 8.56893C47.7255 8.67936 47.7413 8.79505 47.7518 8.91599C47.7623 9.03694 47.7676 9.16315 47.7676 9.29987C47.7676 9.4471 47.7571 9.5996 47.7413 9.75736C47.7255 9.91511 47.6992 10.0676 47.6782 10.2148C47.5783 10.1886 47.4784 10.178 47.3785 10.178C47.2733 10.178 47.1944 10.178 47.1313 10.178C46.8053 10.178 46.4898 10.2254 46.19 10.3148C45.8903 10.4042 45.6221 10.5672 45.3855 10.7985C45.1489 11.0299 44.9595 11.3454 44.8176 11.7503C44.6756 12.15 44.6072 12.6706 44.6072 13.3016V17.9554C44.4758 17.9817 44.3233 17.9974 44.1603 18.008C43.9972 18.0185 43.8447 18.0237 43.7133 18.0237C43.5818 18.0237 43.4293 18.0185 43.2663 18.008C43.1033 17.9974 42.9455 17.9764 42.7983 17.9554V8.58997H42.8141Z" fill="#4C4C4D"/>
<path d="M32.2286 3.07926H30.4618L31.7133 1.82773C31.6134 1.69101 31.5029 1.55955 31.3873 1.4386C31.2663 1.31766 31.1401 1.20723 30.9981 1.11258L29.7466 2.3641V0.597244C29.5836 0.570951 29.4153 0.555176 29.2418 0.555176H29.2365C29.063 0.555176 28.8947 0.570951 28.7317 0.597244V2.3641L27.4802 1.11258C27.3435 1.21249 27.212 1.32292 27.0911 1.4386C26.9701 1.55955 26.8649 1.68575 26.765 1.82773L28.0218 3.07926H26.255C26.255 3.07926 26.2129 3.41054 26.2129 3.58407C26.2129 3.75761 26.2287 3.92588 26.255 4.08889H28.0218L26.7703 5.34042C26.9648 5.61386 27.2067 5.85575 27.4854 6.05557L28.737 4.80405V6.57091C28.9 6.5972 29.0683 6.61297 29.2418 6.61297H29.247C29.4206 6.61297 29.5888 6.5972 29.7519 6.57091V4.80405L31.0034 6.05557C31.1401 5.95566 31.2716 5.84523 31.3925 5.72955C31.5135 5.6086 31.6239 5.4824 31.7185 5.34042L30.467 4.08889H32.2339C32.2602 3.92588 32.2759 3.75761 32.2759 3.58407V3.57882C32.2707 3.41054 32.2602 3.24227 32.2286 3.07926ZM29.999 3.58933C29.999 3.81545 29.9569 4.03105 29.8833 4.23087C29.6835 4.30449 29.4679 4.34656 29.2418 4.34656C29.0157 4.34656 28.8001 4.30449 28.6002 4.23087C28.5266 4.03105 28.4846 3.81545 28.4846 3.58933V3.58407C28.4846 3.35796 28.5266 3.14236 28.6002 2.94254C28.8001 2.86892 29.0157 2.82685 29.2418 2.82685C29.4679 2.82685 29.6835 2.86892 29.8833 2.94254C29.9569 3.14236 29.999 3.35796 29.999 3.58933Z" fill="#4C4C4D"/>
</g>
</g>
<defs>
<clipPath id="clip0_1_1032">
<rect width="48" height="24" fill="white" transform="translate(0.166626)"/>
</clipPath>
</defs>
</svg>
